<?xml version="1.0" encoding="iso-8859-1"?>
<!-- Generator: Adobe Illustrator 13.0.2, SVG Export Plug-In . SVG Version: 6.00 Build 14948)  -->
<!DOCTYPE svg PUBLIC "-//W3C//DTD SVG 1.1//EN" "http://www.w3.org/Graphics/SVG/1.1/DTD/svg11.dtd">
<svg version="1.1" id="Layer_1" xmlns="http://www.w3.org/2000/svg" xmlns:xlink="http://www.w3.org/1999/xlink" x="0px" y="0px"
	 width="278.887px" height="198.703px" viewBox="0 0 278.887 198.703" style="enable-background:new 0 0 278.887 198.703;"
	 xml:space="preserve">
<g>
	<path style="fill-rule:evenodd;clip-rule:evenodd;" d="M217.16,49.099c1.319,0,2.638,0,3.957,0
		c3.729,5.789,2.241,15.17-0.792,20.576C217.414,63.783,218.719,54.438,217.16,49.099z"/>
	<path style="fill-rule:evenodd;clip-rule:evenodd;" d="M165.72,57.804c-1.136,4.141-5.127,5.425-8.705,7.123
		C158.571,61.207,161.282,58.642,165.72,57.804z"/>
	<path style="fill-rule:evenodd;clip-rule:evenodd;" d="M164.928,63.344c3.578,2.668-4.265,5.806-6.331,7.914
		C156.033,66.809,163.066,65.921,164.928,63.344z"/>
	<path style="fill-rule:evenodd;clip-rule:evenodd;" d="M179.173,67.301c3.502,1.51,3.814,6.209,7.122,7.914
		c1.715-2.282-3.592-4.291-3.165-7.914c4.513,0.236,3.96,5.536,7.122,7.123c-1.25,1.651-1.833,3.97-4.748,3.957
		C182.237,76.145,175.686,71.323,179.173,67.301z"/>
	<path style="fill-rule:evenodd;clip-rule:evenodd;" d="M164.928,70.466c3.238,2.328-3.675,6.396-6.331,7.914
		C158.072,73.106,162.591,72.877,164.928,70.466z"/>
	<path style="fill-rule:evenodd;clip-rule:evenodd;" d="M177.59,75.214c2.668,0.498,3.644,2.688,3.957,5.54
		C178.911,80.226,177.25,78.72,177.59,75.214z"/>
	<path style="fill-rule:evenodd;clip-rule:evenodd;" d="M257.52,79.171c0.386,3.154-7.729,8.458-11.871,7.123
		C248.025,82.338,254.552,82.535,257.52,79.171z"/>
	<path style="fill-rule:evenodd;clip-rule:evenodd;" d="M161.763,81.545c2.299,1.104-0.224,3.906-0.792,4.749
		C158.673,85.191,161.196,82.388,161.763,81.545z"/>
	<path style="fill-rule:evenodd;clip-rule:evenodd;" d="M174.425,84.711c12.577,2.196,19.303,10.243,23.741,20.576
		c-4.487,0.382-6.812-7.851-9.496-11.87c-2.823-0.479-4.496-3.32-7.123-4.749C179.44,87.522,174.939,88.061,174.425,84.711z"/>
	<path style="fill-rule:evenodd;clip-rule:evenodd;" d="M233.779,93.417c-0.077,3.088-2.152,4.179-4.748,4.748
		C229.291,95.259,231.248,94.05,233.779,93.417z"/>
	<path style="fill-rule:evenodd;clip-rule:evenodd;" d="M187.087,98.165c0.974,0.346,1.625,1.013,1.583,2.374
		C185.924,101.229,185.956,99.321,187.087,98.165z"/>
	<path style="fill-rule:evenodd;clip-rule:evenodd;" d="M187.878,107.662c5.815,0.704,28.217,16.704,10.288,18.201
		c0.005-2.105,2.202-2.019,3.166-3.165c-4.719-2.79-11.661-1.204-13.454-7.123C187.238,113.46,188.324,111.042,187.878,107.662z
		 M199.75,116.367c-3.021-0.707-5.052,1.292-6.331,0c0.104-1.951,0.12-3.813-0.792-4.749c-0.791,0-1.582,0-2.374,0
		C188.126,117.8,198.75,123.255,199.75,116.367z"/>
	<path style="fill-rule:evenodd;clip-rule:evenodd;" d="M232.196,107.662c4.174,1.566-2.519,6.357-3.957,4.748
		C229.058,110.327,231.377,109.744,232.196,107.662z"/>
	<path style="fill-rule:evenodd;clip-rule:evenodd;" d="M206.872,115.575c2.309-1.163,2.309,3.538,0,2.374
		C206.872,117.158,206.872,116.367,206.872,115.575z"/>
	<path style="fill-rule:evenodd;clip-rule:evenodd;" d="M237.736,138.525c13.694,0.309,24.126,14.888,22.95,30.072
		C257.979,153.629,250.11,143.825,237.736,138.525z"/>
	<path style="fill-rule:evenodd;clip-rule:evenodd;" d="M205.289,159.892c3.335,0.988-0.075,3.244,0,5.54
		C203.342,163.667,204.025,161.776,205.289,159.892z"/>
	<path style="fill-rule:evenodd;clip-rule:evenodd;" d="M208.455,163.058c2.014,0.08,1.869,2.948,0.791,3.957
		C207.872,166.294,207.201,164.242,208.455,163.058z"/>
	<path style="fill-rule:evenodd;clip-rule:evenodd;" d="M273.347,71.258c0.01,3.703-2.599,4.787-5.539,5.54
		c-1.739,7.23-7.746,10.191-12.662,14.245c-0.893,13.088-3.38,24.583-11.871,30.073c-0.156,5.647-2.976,8.631-6.331,11.079
		c1.669,2.024,5.838,1.548,9.497,1.583c5.063,1.683,9.059,3.812,13.453,6.331c4.062,2.328,8.919,4.315,11.871,7.914
		c2.73,2.585,4.933,3.772,7.122,10.287c-19.952-17.84-33.764-23.632-45.108-23.741c0.067,1.123,0.131,2.241-0.792,2.374
		c6.537,7.475,16.784,15.359,13.454,30.073c-2.535-9.336-3.496-20.245-11.079-24.533c-2.685,2.888-0.96,6.307-1.583,10.288
		c-0.715,4.569-3.595,9.512-3.166,12.662c0.98,7.201,7.307,6.218,12.662,10.288c-0.802,6.056-3.57,10.146-6.331,14.244
		c-10.695-4.599-22.79,0.891-33.237-3.957c-1.389-5.736-5.247-10.693-5.54-17.41c-0.398-9.123,6.407-19.334,1.583-26.906
		c-4.724-1.031-4.613,2.772-8.705,2.374c-5.091-0.594-9.484-5.618-14.245-3.957c-5.017,8.353,8.092,11.115,10.288,17.41
		c5.338,0.678,9.944,2.56,9.496,6.331c-0.716,6.024-12.048,4.045-17.41,4.748c0.156,5.647,7.712,3.896,10.288,7.123
		c1.604,4.815,0.66,14.733,0,17.41c-10.785-1.961-24.082-2.316-33.238,0c-8.088-3.782-8.622-15.119-11.079-24.533
		c-2.66-1.032-6.58-0.807-7.914-3.165c0.038-9.31,3.527-16.914-0.791-23.741c-4.825-0.077-7.34,2.156-9.497,4.748
		c0,2.901,0,5.804,0,8.705c-10.792,1.203-11.452,20.262-7.123,29.281c-1.22,2.828-4.643,2.121-7.914,3.957
		c-3.275,1.837-6.57,5.735-10.288,7.122c-1.161,0.434-2.766-0.357-3.957,0c-1.311,0.394-2.61,0.702-5.54,1.583
		c-0.495,0.148-1.503,1.574-1.583,1.582c-2.734,0.274-6.74-1.253-10.288-1.582c-9.537-0.885-16.706,0.941-21.367-4.749
		c5.531-7.395,13.72-12.131,22.95-15.827c-1.206-5.389-1.445-11.744-4.748-15.036c0.925-3.56,3.079-5.891,3.166-10.288
		c-2.695-3.188-15.271,0.403-17.411-5.54c5.383-17.418,3.937-39.941,1.583-57.771c4.352-3.035,11.186-3.586,15.828-6.331
		c0.274-9.222,2.797-16.196,3.957-24.533c-4.688,1.643-3.644,9.019-8.706,10.288c-2.27,7.197-10.247,13.333-16.619,18.202
		c-5.047,3.857-13.561,7.648-18.993,12.662c-6.142,5.669-12.815,14.544-13.454,21.367c-1.051,11.239,6.485,16.193,16.619,18.202
		c-4.268,6.919-14.62,7.564-23.741,3.957C7.254,136.92-1.851,124.636,0.322,109.244c0.198-1.407,1.711-2.552,2.374-4.748
		c1.81-5.998,1.023-7.502,4.748-12.662c2.883-3.994,8.428-10.801,11.871-13.453C32.559,68.176,52.879,64.31,66.006,50.682
		c4.116-4.273,6-10.176,9.496-14.245c1.019-1.185,3.312-1.604,4.749-3.166c6.387-6.941,11.731-12.015,21.367-17.41
		c7.176-4.019,13.484-6.043,22.159-9.497c4.191-1.669,8.035-4.084,11.079-4.749c12.37-2.7,27.455-1.532,37.986,0
		c14.794,2.152,29.176,7.01,39.569,14.245c7.675,5.343,11.606,8.806,17.41,15.828c2.002,2.421,5.008,4.749,6.331,7.122
		c3.646,6.541,4.562,18.054,10.288,24.533C256.098,65.294,262.965,70.033,273.347,71.258z M48.596,86.294
		c5.399-0.668,6.647-5.487,8.705-9.497C52.6,75.516,49.508,81.294,48.596,86.294z M50.179,78.38
		c2.462-2.022,5.629-3.339,4.748-8.706C50.496,73.239,44.313,79,44.639,84.711C48.066,84.182,49.809,81.967,50.179,78.38z
		 M137.23,4.782c-3.601,1.675-10.103,0.448-11.871,3.957c27.217-3.194,55.002,1.726,68.85,16.619
		c2.318,1.11,0.587,6.272,3.957,6.331c1.581-5.408,4.477,2.607,8.705-0.792C196.821,9.557,169.047,1.719,137.23,4.782z
		 M208.455,22.983c3.262,4.692,4.668,13.623,12.662,11.08c-2.308-6.979-9.061-13.3-14.245-17.411
		c-3.943-3.126-5.962-6.415-10.288-4.748C200.723,15.138,205.059,18.1,208.455,22.983z M115.072,19.818
		c-6.95,2.767-12.14,3.708-15.828,7.914c-1.199,1.368-2.306,3.181-2.374,4.748c4.717,1.448,6.445-3.068,8.705-1.583
		c-8.742,10.572-8.124,31.905-2.374,45.108c3.962,2.688,7.231,8.3,7.914,11.871c7.932-4.275,7.372,17.229,16.619,14.245
		c-1.627-3.385-4.284-5.741-6.331-8.705c0-1.583,0-3.166,0-4.749c-10.614-15.955-3.461-43.757,6.331-53.814
		c3.347-3.438,7.859-3.963,10.288-7.914c-4.058-1.398-7.06,4.854-13.454,1.583c-4.432,3.482-10.55,5.278-13.454,10.288
		c-0.78,8.721-0.27,25.579-1.583,36.403c-9.099-10.706-4.425-30.001-0.791-44.317c4.556-1.775,6.01-6.652,12.662-6.331
		c3.086-5.62,14.299-3.111,16.619-9.497C129.197,11.745,120.245,17.759,115.072,19.818z M164.137,18.235
		c-6.087,3.296-15.503,8.133-19.784,12.662c-4.774,5.049-10.015,13.427-14.245,22.159c-1.549,3.198-2.738,9.604-3.166,12.662
		c-0.945,6.757-2.267,15.411-1.583,21.367c0.145,1.258,1.95,3.007,2.375,5.54c0.955,5.698,1.258,9.211,5.54,10.288
		c-2.004-9.553-0.922-19.531,0-26.115c0.934-6.674-0.895-12.812,0-18.202c2.021-12.178,11.063-23.459,20.576-30.073
		c4.489-3.121,10.834-7.367,18.993-7.914C171.892,16.51,164.731,17.914,164.137,18.235z M168.094,23.775
		c-1.847,0.628-5.158,2.771-7.123,3.957c-2.64,1.593-5.684,3.175-5.539,5.54c9.593-1.486,14.962-7.197,24.532-8.705
		C178.147,20.694,171.542,22.603,168.094,23.775z M154.641,38.811c-2.23,1.649-7.556,7.968-10.288,11.08
		c-1.315,1.497-4.605,12.062-1.583,12.662c3.736-2.54,2.912-6.468,5.54-9.497c4.688-5.404,13.947-5.989,17.41-12.662
		c6.009-4.279,16.577-3.998,21.367-9.497c0-1.055,0-2.11,0-3.166C176.621,30.849,163.033,32.605,154.641,38.811z M228.239,34.063
		c-0.607-2.559-2.189-4.141-4.748-4.749C224.312,31.545,225.964,35.76,228.239,34.063z M66.797,57.804
		c1.274,2.545,0.655,5.246-0.791,7.123c6.848-1.857,11.329-6.081,13.453-12.662c4.299-3.99,10.31-12.483,11.871-18.202
		c0.224-0.82,1.432-1.937-0.791-2.374C80.75,38.518,76.985,51.373,66.797,57.804z M208.455,44.351
		c11.627,9.358,5.667,36.363,6.331,49.857c-5.898-2.022-2.173-8.884-2.374-13.453c-0.502-11.384-3.982-24.693-7.123-33.238
		c-0.382-2.493,2.43-1.792,1.583-4.748c-4.77,1.077-5.546-1.84-9.496-1.583c-1.417,2.838,3.201,5.502,4.748,7.914
		c1.227,7.749,3.499,16.475,4.748,25.324c0.72,5.099-0.151,10.383,0.791,15.036c0.311,1.532,1.841,2.58,2.375,3.957
		c1.34,3.454,0.625,8.523,3.957,10.288c4.506-2.353,3.042-10.675,10.287-10.288c2.27-5.3,4.752-12.451,6.331-19.785
		c1.108-5.146,4.199-11.297,4.749-15.828c0.358-2.959,1.97-10.123-3.166-10.288c-2.222,3.271-0.233,8.189-0.791,12.662
		c-0.494,3.954-2.847,7.177-3.957,11.08c-2.179,7.651-3.239,16.411-8.705,18.202c2.768-14.989,19.176-41.363-0.792-49.065
		c-2.704-0.594-1.005,3.215-3.956,2.374c-2.34-0.826-2.325-4.006-6.332-3.166C207.645,41.467,209.026,41.933,208.455,44.351z
		 M204.498,103.705c2.008-9.82-0.727-16.622-0.791-27.699c-0.703-1.671-2.409-2.339-2.374-4.748
		c0.57-8.221-1.195-14.105-3.166-19.785c-4.72-2.26-6.608-8.411-11.871-9.497c-5.711-1.178-8.528,1.519-11.87,3.166
		c-6.153,3.031-7.456,3.449-11.871,7.123c-2.13,1.772-5.915,4.246-6.331,4.748c-1.903,2.3-5.402,11.663-5.539,13.454
		c-0.55,7.197,3.168,14.068,4.748,20.576c1.145,4.713,1.267,9.642,2.374,14.245c-5.504-9.366-9.828-27.131-7.122-39.568
		c-4.511,0.514-5.345,6.65-5.54,10.288c-0.658,12.286,4.889,29.721,10.288,36.404c9.373,2.761,9.186,15.083,24.532,11.87
		c-1.812-4.782-6.761-6.429-8.705-11.079c0-1.583,0-3.165,0-4.748c-4.32-5.279-8.184-10.955-7.122-18.993
		c0.458-3.465,3.156-6.62,3.957-10.288c0.707-3.24-0.048-7.088,0.791-10.288c2.331-8.89,10.301-14.256,12.662-20.576
		c7.861,6.597,20.182,16.457,16.619,29.281c-1.575-0.799-3.38-1.368-3.957-3.166c2.359-9.689-5.527-15.424-11.079-19.785
		c-5.664,5.679-11.835,10.852-10.288,23.742c-4.242,5.044-9.046,23.63,1.583,25.324c2.099,0.252-0.74-4.434,2.374-3.166
		c3.71,2.094,6.898,4.709,9.496,7.914c-5.187,0.745-8.97-2.021-11.87,0.791c2.41,11.044,10.981,15.926,22.158,18.202
		c-0.068,2.042-3.388,0.833-2.374,3.957c2.012,3.527,6.317,4.762,11.871,4.748c0.661-3.589-5.123-6.369-1.583-7.914
		c3.565,0.128,1.603,5.784,5.54,5.54c4.564,0.872,4.281-3.105,8.705-2.374c0.909,2.558-5.58,4.141-1.583,4.748
		c2.776,2.607,4.271,0.357,7.914,0c0.399-2.485-1.865-3.233,0.791-3.957c8.635-0.14,15.274-6.263,15.036-12.662
		c-5.854-0.679-5.426,6.847-10.288,7.914c-4.367,0.959-5.229-1.445-10.288-2.374c-0.589,2.436,2.173,1.521,1.583,3.957
		c-2.226-1.468-4.765-2.622-5.539-5.54c2.88-3.213,7.972-2.477,12.662-3.957c2.99-0.944,5.809-3.697,8.705-3.957
		c1.4-0.126,2.508,1.308,3.957,0.792c5.786-2.061,7.478-6.433,9.496-12.662c-8.177-0.7-9.253,9.616-15.827,7.913
		c4.48-8.181,17.366-7.958,17.41-20.576c-1.244-0.075-2.744,0.106-2.374-1.583c4.706-4.526,13.379-5.086,13.453-14.245
		c-12.707,0.482-19.896,6.483-26.907,12.662c-0.518-12.095,18.18-15.328,30.072-15.036c-0.61-2.915-5.419-1.745-7.913-2.374
		c-5.503-1.389-13.222-4.895-16.619-4.748c-0.271-2.895-0.082-6.249-3.166-6.331c-2.421,7.905-2.607,15.719-5.539,22.158
		c-1.857,4.079-5.886,7.307-7.123,11.871c-1.12,4.136-0.911,9.972-1.582,14.245c-0.307,1.952,2.412,9.429-3.957,8.705
		c-1.936-6.025,2.099-11.78,0.791-16.619c-5.416,1.178-4.403,8.786-7.913,11.87c-4.355-1.448-1.188-10.42-6.332-11.079
		c0.168,5.707-0.053,11.026-3.956,12.662c-0.584-1.791-3.017-1.731-3.166-3.957C201.089,106.627,202.749,105.122,204.498,103.705z
		 M63.632,72.84c6.06-0.652,9.718-6.673,12.662-10.288c0.957-1.175,6.331-3.762,2.374-4.749
		C76.064,65.224,64.783,63.968,63.632,72.84z M89.748,89.459c9.419,5.881,15.961,14.639,32.446,13.453
		c-0.028-3.928-5.23-2.683-7.914-3.957c-9.601-7.019-15.801-17.437-18.993-30.864C85.576,68.349,89.897,81.355,89.748,89.459z
		 M39.891,76.006c1.801,0.574,0.236,4.513,3.166,3.957c1.842-3.17,4.927-5.097,6.331-8.705
		C45.163,68.916,42.503,74.179,39.891,76.006z M25.646,79.963c0.571,2.418-0.81,2.884-0.792,4.748c2.091,1.272,4.98-1.4,3.957,3.957
		c2.321,0.91,2.939-3.796,3.957-1.583c-1.532,2.109-1.238,7.683,3.166,6.331c0.189-3.24,2.401-4.458,2.374-7.914
		c-1.093-2.362-3.654-3.728-4.748-3.957c-0.18-1.402,0.797-3.963-1.583-3.165C30.735,81.081,28.61,80.542,25.646,79.963z
		 M16.149,90.251c-8.919,10.625-6.233,34.958,7.122,38.778c-0.669-5.576-7.399-8.812-8.705-15.037
		c-1.827-8.712,2.362-15.796,3.957-23.741C17.732,90.251,16.94,90.251,16.149,90.251z M70.754,94.999
		c1.093,3.128,3.822,4.62,7.914,4.749c-0.214-2.687,0.613-6.417-0.791-7.914C74.178,91.404,68.506,91.977,70.754,94.999z
		 M21.689,119.532c0.169-8.532-2.787-16.914,0.791-26.115c-0.791,0-1.583,0-2.374,0C16.959,99.107,15.605,116.073,21.689,119.532z
		 M152.266,126.654c4.031,0.339,6.172-1.215,8.705-2.374c-1.046-2.646-3.385-4-7.122-3.956c-4.446-5.314-8.558-10.964-11.079-18.202
		c0.071-1.247,2.019-0.619,1.583-2.374c-3.35-0.081-3.604-3.255-4.749-5.54C135.24,108.442,144.524,119.604,152.266,126.654z
		 M23.271,109.244c4.511-0.421,3.54-9.926,3.166-12.662c-0.791,0-1.583,0-2.374,0C22.035,98.75,21.807,106.129,23.271,109.244z
		 M30.394,104.496c0.673-0.661,2.168-6.185-0.792-5.54C28.146,100.4,29.183,103.392,30.394,104.496z M85.791,110.036
		c-4.94-1.128-8.491-3.644-15.036-3.166c0.654,2.237-1.115,2.051-0.792,3.957c1.237,1.559,3.733,2.186,5.54,2.374
		c8.915,0.932,21.112-1.149,30.864-1.583c8.631-0.383,18.126,1.17,22.95-3.956c-5.959-2.539-12.725,1.493-19.785,0.791
		c-2.565-0.255-5.221-1.916-7.914-2.374c-10.499-1.789-21.573-2.906-30.864-5.54C71.084,108.387,84.617,103.032,85.791,110.036z
		 M23.271,133.777c-6.501-8.007-16.194-12.823-13.453-30.072c-0.792,0-1.583,0-2.375,0C4.849,118.535,11.004,131.198,23.271,133.777
		z M126.151,113.201c-6.274,2.312-14.983,7.175-22.159,8.705c-11.04,2.355-22.588,3.305-34.029,5.54
		c-1.003,4.007-0.588,11.364-1.583,17.41c14.086,1.78,29.292,2.788,44.317,0.791c10.644-1.414,19.553-4.296,22.95-11.079
		c-3.787-3.537-10.492,1.555-17.41,2.374c-9.915,1.175-17.349,1.876-26.116,2.374c-7.04,0.4-17.37,2.392-18.993-4.748
		c19.689-1.941,44.26,0.998,60.145-4.748c-3.544-5.907-1.136-9.872,0.792-15.828C131.448,111.794,128.506,112.333,126.151,113.201z
		 M85.791,116.367c-6.363,0.518-17.148-1.589-15.828,5.539c14.179,0.755,29.888-3.12,44.317-6.331
		c-0.124-0.931,0.136-2.246-0.792-2.374C107.071,115.876,93.646,115.727,85.791,116.367z M31.186,139.316
		c-3.145-5.412-9.732-2.7-14.245-4.748c-6.645-3.016-7.102-10.643-12.662-14.244C7.088,132.813,16.28,138.921,31.186,139.316z
		 M224.282,122.698c1.829,5.37,9.733,2.201,10.288-2.374C229.883,122.732,228.896,122.847,224.282,122.698z M170.468,126.654
		c0.95,8.937,10.479,1.281,17.41,2.375C184.913,124.753,175.99,126.303,170.468,126.654z M168.885,132.194
		c-2.285-3.459-5.577-5.73-11.079-3.957C157.112,134.051,166.898,136.173,168.885,132.194z M153.849,138.525
		c-1.446-1.455-3.129-2.675-3.957-4.748c0.518-3.176,6.52-0.867,5.54-5.54c-4.396-0.176-6.02,2.422-9.497,3.166
		c-2.627-0.802-2.479-4.38-6.331-3.957c-1.855,5.898,4.145,7.888,7.123,10.288c1.808,1.457,2.515,4.146,4.748,5.539
		c3.479,2.172,6.942,4.696,10.288,5.54c3.437-3.95,9.773-4.999,10.288-11.871c-5.346-0.056-9.089,5.666-13.454,3.957
		c1.354-3.131,6.985-1.983,7.914-5.539c-0.614-0.178-1.561-0.022-1.583-0.792C160.312,134.963,158.369,138.033,153.849,138.525z
		 M176.008,133.777c3.753,4.062,11.385,0.419,14.244-3.166C185.975,129.185,178.426,130.763,176.008,133.777z M182.339,138.525
		c5.911,1.556,12.115,3.649,16.618-0.791C194.854,133.724,185.348,132.173,182.339,138.525z M206.872,137.734
		c-0.094,4.298,8.506,3.965,9.497,0.791C215.796,135.828,208.635,136.745,206.872,137.734z M211.62,143.273
		c-2.052-0.849-3.881-1.922-7.122-1.582c1.621,8.667,12.521,8.054,15.827,15.036c4.984-1.721,12.975-4.287,11.08-10.288
		c-3.396,0.825-3.831,4.61-7.914,4.748c-2.028-2.457-6.808-2.161-7.914-5.54c5.489-1.897,15.074,0.302,15.036-7.122
		C225.18,135.333,219.219,143.54,211.62,143.273z M149.892,159.101c-0.604,2.298-3.751,2.053-3.165,5.539
		c1.322,3.684,2.976,8.688,3.957,13.454c0.488,2.375-1.331,6.585,2.374,7.122c-0.306-8.141,3.169-14.073,11.87-15.827
		c3.416-0.688,8.24,1.883,11.08-1.583c-5.074-6.787-17.055,2.354-21.367-1.583c4.385-2.737,9.709-4.535,17.41-3.957
		c1.356-0.135,3.111,4.488,3.165,0.792c0.072-5.084-6.921-3.103-8.705-6.331c1.999-1.167,3.535-2.796,6.331-3.166
		c-0.211-3.151,1.994-5.573-0.791-7.122c-3.533,3.854-6.323,8.45-11.08,11.079c-2.797-2.367-2.782-0.271-6.33,0
		c-3.261-3.862-3.813-10.432-10.288-11.079C142.951,152.09,145.035,156.534,149.892,159.101z M86.582,151.978
		c0,1.583,0,3.166,0,4.749c7.486,2.286,12.679-0.854,18.202-2.374c3.754-1.034,8.541-0.768,10.288-3.957
		C108.125,147.027,94.602,149.509,86.582,151.978z M66.006,192.338c10.096-0.723,18.538,3.394,26.115,2.375
		c8.764-1.179,13.77-7.811,22.159-10.288c0-2.902,0-5.804,0-8.705c-0.48-1.367-3.754,0.061-3.957-1.583
		c1.547-2.674,2.937-5.505,3.166-9.497c-3.095-2.479-7.137,4.201-10.288,1.583c5.296-6.311,16.553-6.661,19.784-15.036
		c-4.794,0.248-8.213,3.981-12.662,5.54c-8.785,3.076-18.622,4.605-28.49,7.122c0.068,10.22,17.61,2.966,24.533,6.331
		c-1.799,4.005-11.131,0.477-13.454,3.957c4.385,2.474,14.035-0.317,15.036,5.539c-2.722,4.336-13.93,2.17-17.41,0
		c3.72-3.269,12.283,2.561,14.245-1.582c-6.285,0.714-15.581-5.938-17.41,0c-0.566,2.148,3.731-0.566,3.166,1.582
		C79.478,181.014,68.523,182.458,66.006,192.338z M178.382,165.432c5.116-0.049,12.687,2.847,14.244-2.374
		c-5.564-0.503-5.89-6.245-12.662-5.54c-0.181-2.18-1.292-4.026-3.956-5.54C174.842,155.506,177.563,161.319,178.382,165.432z
		 M208.455,184.425c0.38-5.688,1.63-10.505,3.165-15.036c6.237-1.15,9.623-5.15,16.619-5.54c-0.6-2.763,2.396-5.975,0-7.914
		c-3.221,3.194-7.308,5.819-11.079,5.54c-6.395-0.474-7.762-8.579-13.453-9.497C201.53,162.909,199.901,178.521,208.455,184.425z
		 M143.561,165.432c-0.196-4.815-1.143-8.881-3.957-11.079C141.83,158.885,136.584,166.026,143.561,165.432z M213.203,186.007
		c3.848,0.155,2.279-5.106,4.748-6.331c3.121-0.218,0.229,5.575,2.374,6.331c4.835-2.006,1.584-12.012,0-15.036
		c-1.857-0.252-2.97-1.25-5.539-0.791C212.116,174.364,209.194,181.231,213.203,186.007z M224.282,172.554
		c-0.824,5.797,2.903,7.747,0.792,12.662c4.709,1.279,1.896-4.962,5.539-4.748c0.961,1.413,0.145,4.604,1.583,5.539
		C235.45,178.798,231.151,164.991,224.282,172.554z M155.432,182.051c-0.087,2.237,1.039,8.77,5.539,7.913
		c2.589-3.166-2.024-4.419-1.582-7.913c1.069-0.249,1.511-1.127,3.165-0.792c0.427,4.059,0.745,8.225,5.54,7.914
		c0.278-3.927,0.68-13.522-2.374-16.619C160.847,172.623,155.64,176.68,155.432,182.051z M171.259,188.382
		c4.656,0.171,0.677-8.293,6.331-7.123c-0.591,2-2.127,8.018,0.792,8.705c3.074-2.729,2.333-9.272,2.374-15.036
		C171.429,167.064,167.396,179.297,171.259,188.382z M235.362,186.799c2.882-2.13,4.413-5.61,4.748-10.288
		c-0.936-0.911-2.798-0.896-4.748-0.791C235.846,179.697,234.618,185.075,235.362,186.799z M184.713,189.964
		c-0.599-1.905-0.629-3.832,0.791-5.539c2.374,1.354,0.879,2.88,0.791,5.539c3.442-1.658,1.261-10.519,0-12.662
		c-0.791,0-1.582,0-2.374,0C184.283,181.233,178.334,189.804,184.713,189.964z"/>
</g>
</svg>
